<?xml version="1.0" standalone="no"?>
<!DOCTYPE svg PUBLIC "-//W3C//DTD SVG 20010904//EN"
 "http://www.w3.org/TR/2001/REC-SVG-20010904/DTD/svg10.dtd">
<svg version="1.0" xmlns="http://www.w3.org/2000/svg"
 width="860.000000pt" height="860.000000pt" viewBox="0 0 860.000000 860.000000"
 preserveAspectRatio="xMidYMid meet">
<metadata>
Created by potrace 1.14, written by Peter Selinger 2001-2017
</metadata>
<g transform="translate(0.000000,860.000000) scale(0.100000,-0.100000)"
fill="#000000" stroke="none">
<path d="M4085 8594 c-1127 -72 -2116 -524 -2880 -1316 -446 -462 -774 -1005
-982 -1623 -97 -288 -163 -595 -199 -927 -24 -210 -24 -646 0 -856 94 -855
402 -1606 929 -2266 223 -279 579 -612 877 -822 596 -419 1270 -672 2028 -761
207 -24 680 -24 887 1 573 67 1043 208 1530 460 412 212 767 476 1100 817 715
732 1131 1659 1215 2704 12 158 4 587 -14 740 -75 622 -256 1183 -541 1681
-695 1211 -1911 2003 -3302 2149 -145 15 -529 26 -648 19z"/>
</g>
</svg>
